Coordinates
version=1
nRows=17
nColumns=40
inDegrees=yes

Units are S.I. units (second, meters, Newtons, ...)
Angles are in degrees.

endheader
time	pelvis_tilt	pelvis_list	pelvis_rotation	pelvis_tx	pelvis_ty	pelvis_tz	hip_flexion_r	hip_adduction_r	hip_rotation_r	knee_angle_r	knee_angle_r_beta	ankle_angle_r	subtalar_angle_r	mtp_angle_r	hip_flexion_l	hip_adduction_l	hip_rotation_l	knee_angle_l	knee_angle_l_beta	ankle_angle_l	subtalar_angle_l	mtp_angle_l	lumbar_extension	lumbar_bending	lumbar_rotation	arm_flex_r	arm_add_r	arm_rot_r	elbow_flex_r	pro_sup_r	wrist_flex_r	wrist_dev_r	arm_flex_l	arm_add_l	arm_rot_l	elbow_flex_l	pro_sup_l	wrist_flex_l	wrist_dev_l
     20.36964286	     -4.94705735	     -4.04658795	     16.22545174	      1.00756539	      0.91838368	      0.54274788	      8.04838057	      5.05306826	    -16.65657364	     19.58494185	     19.58494185	     18.55755289	    -10.53826479	     -0.41069869	     29.35606078	     -6.91674478	      6.35445560	     19.10337638	     19.10337638	      6.13769052	     -1.14861232	      7.51760873	     -8.90532889	      2.44334015	      4.23143480	     61.30477632	    -18.67140735	     -8.12918770	     68.14724117	     45.14441088	      0.00000000	      0.00000000	    -18.97864866	     -8.50455498	     27.09552419	     30.10001154	     42.90661711	      0.00000000	      0.00000000
     20.39428571	     -5.32635626	     -4.12052528	     16.11258009	      1.00758979	      0.91802854	      0.53973158	      7.92715609	      4.94054290	    -16.57709183	     19.31922038	     19.31922038	     18.60376394	    -10.37590160	     -0.43364433	     29.47221896	     -6.70939114	      6.39277052	     18.95539092	     18.95539092	      5.93086004	     -0.84398093	      7.29328646	     -8.63463957	      2.30723223	      4.40946603	     62.02510308	    -18.55281798	     -8.01186313	     68.56075686	     45.13074837	      0.00000000	      0.00000000	    -18.71256946	     -8.73012402	     27.08575826	     30.09835320	     42.91850043	      0.00000000	      0.00000000
     20.41892857	     -5.43967959	     -4.23383239	     15.94017031	      1.00818940	      0.91788029	      0.53648012	      7.40287108	      4.91948803	    -16.69534061	     18.88955173	     18.88955173	     18.59100705	     -9.70914770	     -0.90253410	     29.13966606	     -6.71692527	      6.15265858	     18.66355635	     18.66355635	      4.27280386	     -0.60205868	      2.61399150	     -8.66626640	      2.28023837	      4.78909927	     62.04098897	    -18.99880092	     -7.05427717	     70.55776889	     45.05790867	      0.00000000	      0.00000000	    -18.16797094	     -8.93595081	     27.60164377	     29.73670614	     42.98760657	      0.00000000	      0.00000000
     20.44357143	     -5.67033691	     -4.29587231	     15.71480004	      1.00882948	      0.91770529	      0.53291282	      7.06386445	      4.79479629	    -16.59643459	     18.60703707	     18.60703707	     18.64349892	     -9.35536680	     -0.96807427	     28.95491556	     -6.51881672	      6.42321761	     18.72037770	     18.72037770	      3.45732437	     -1.47774399	      0.62810556	     -8.52255374	      2.18206754	      4.83872108	     62.37539628	    -18.66671264	     -6.90628811	     70.90786718	     45.07167794	      0.00000000	      0.00000000	    -17.76430148	     -9.19724793	     28.01180498	     29.59989228	     43.06295913	      0.00000000	      0.00000000
     20.46821429	     -5.91894636	     -4.31100732	     15.41009616	      1.00966062	      0.91767060	      0.52919635	      6.78370471	      4.60513301	    -16.36163309	     18.44873919	     18.44873919	     18.65730197	     -9.16010748	     -0.94928991	     28.88450274	     -6.35934487	      6.35230829	     19.15670421	     19.15670421	      3.52426430	     -1.77144879	      0.44244398	     -8.36909643	      2.01535448	      4.96213638	     62.53552385	    -18.35782381	     -6.77187320	     71.02568339	     45.06475893	      0.00000000	      0.00000000	    -17.29533115	     -9.55315650	     27.95002559	     29.63061807	     43.08263491	      0.00000000	      0.00000000
     20.49285714	     -6.04482576	     -4.36732099	     15.06724988	      1.01073630	      0.91774084	      0.52514532	      6.33076375	      4.46387743	    -16.18534622	     18.22646084	     18.22646084	     18.65095706	     -8.77676139	     -0.93189922	     28.81721090	     -6.24034276	      6.39872544	     19.90156260	     19.90156260	      3.67282681	     -2.49226664	      0.09696758	     -8.33835299	      1.95153838	      5.02831038	     62.65171444	    -18.06846694	     -6.58319324	     71.21099461	     45.05484772	      0.00000000	      0.00000000	    -16.86580047	     -9.81540561	     27.92235650	     29.62825701	     43.10328379	      0.00000000	      0.00000000
     20.51750000	     -6.15754712	     -4.41792501	     14.71705794	      1.01196618	      0.91796575	      0.52070126	      5.82055266	      4.27719384	    -16.09060796	     17.95787178	     17.95787178	     18.62688053	     -8.20685414	     -0.93921250	     28.68419064	     -6.06413516	      6.60989524	     20.58222825	     20.58222825	      3.77460754	     -3.54009604	     -0.19262034	     -8.29532584	      1.98110138	      5.08277552	     62.66673110	    -17.80852651	     -6.29672395	     71.40038705	     45.04263161	      0.00000000	      0.00000000	    -16.39279362	    -10.09340518	     27.90594487	     29.58667321	     43.12990079	      0.00000000	      0.00000000
     20.54214286	     -6.34757160	     -4.37184395	     14.24872668	      1.01331941	      0.91829459	      0.51622935	      5.43162674	      3.96240441	    -15.79933097	     17.80680097	     17.80680097	     18.54850116	     -7.85619250	     -0.91702970	     28.47795795	     -5.87549922	      6.46609530	     21.05367842	     21.05367842	      3.97645298	     -4.17947110	     -0.31592867	     -8.15695940	      1.86036575	      5.22798435	     62.56517407	    -17.44186600	     -6.08305936	     71.43224695	     45.03465045	      0.00000000	      0.00000000	    -15.84485496	    -10.46830823	     27.83604475	     29.61397173	     43.15165240	      0.00000000	      0.00000000
     20.56678571	     -6.40229951	     -4.31422179	     13.85448857	      1.01479032	      0.91885345	      0.51103449	      4.77143514	      3.54666623	    -16.08106556	     17.49112082	     17.49112082	     18.47698288	     -6.61411724	     -1.13727660	     28.12283189	     -5.43293145	      7.17249571	     21.54495858	     21.54495858	      4.08474178	     -6.30516287	      0.09222959	     -8.18575962	      1.86990969	      5.30782980	     62.51731801	    -17.46888444	     -5.42945795	     71.49213768	     45.02297268	      0.00000000	      0.00000000	    -15.30552058	    -10.69710494	     27.91924052	     29.40605959	     43.20155217	      0.00000000	      0.00000000
     20.59142857	     -6.57229519	     -4.26458678	     13.33282342	      1.01628431	      0.91924208	      0.50609048	      4.37181611	      3.18299438	    -15.74089743	     17.36856402	     17.36856402	     18.34110805	     -6.29355257	     -1.10040361	     27.91310340	     -5.23291960	      6.94039316	     22.02282453	     22.02282453	      4.43694072	     -6.87577052	     -0.00891914	     -8.05732938	      1.82396054	      5.43491705	     62.39236930	    -17.17221278	     -5.27124625	     71.46177972	     45.01878452	      0.00000000	      0.00000000	    -14.85837173	    -11.00593527	     27.86102476	     29.43798685	     43.21934136	      0.00000000	      0.00000000
     20.61607143	     -6.58332378	     -4.18228965	     12.88227799	      1.01780813	      0.91990149	      0.50065921	      3.62444903	      2.72963647	    -15.99208549	     16.95449526	     16.95449526	     18.18864922	     -4.96378185	     -1.38483278	     27.59310028	     -4.78832617	      7.44064884	     22.65729647	     22.65729647	      4.90084396	     -8.68072358	      1.07880600	     -8.07706518	      1.88776649	      5.57445910	     62.41087029	    -17.19222990	     -4.77558625	     71.08270518	     45.02595449	      0.00000000	      0.00000000	    -14.35952282	    -11.24253052	     27.94019901	     29.31424309	     43.26039432	      0.00000000	      0.00000000
     20.64071429	     -6.71034341	     -4.11603268	     12.32154764	      1.01922302	      0.92027003	      0.49546823	      3.21325946	      2.31169574	    -15.64395475	     16.86994204	     16.86994204	     18.03501823	     -4.60697867	     -1.37135978	     27.38944873	     -4.55666747	      7.16825270	     23.19200346	     23.19200346	      5.31781827	     -9.28171661	      1.04081292	     -7.98478246	      1.92976838	      5.69775430	     62.30805928	    -16.92095990	     -4.62732656	     71.00658603	     45.02400932	      0.00000000	      0.00000000	    -13.92860807	    -11.55500119	     27.88723325	     29.33847837	     43.27808768	      0.00000000	      0.00000000
     20.66535714	     -6.73370481	     -4.08576679	     11.83603472	      1.02053146	      0.92068802	      0.48999940	      2.57776110	      1.86813083	    -15.91903236	     16.56808161	     16.56808161	     17.84447508	     -3.28634021	     -1.73780815	     27.16222441	     -4.18519366	      7.49179800	     23.89135445	     23.89135445	      6.03488289	    -10.68790609	      2.26106833	     -8.00021110	      2.07084621	      5.85826915	     62.45687420	    -16.97911884	     -4.29118211	     70.32091434	     45.04542591	      0.00000000	      0.00000000	    -13.42009403	    -11.77776220	     27.95833350	     29.24684726	     43.31165969	      0.00000000	      0.00000000
     20.69000000	     -6.85092829	     -4.01154789	     11.24444022	      1.02171700	      0.92089733	      0.48483022	      2.22320668	      1.41499839	    -15.54686602	     16.55372812	     16.55372812	     17.69943279	     -2.92091775	     -1.76272151	     26.95793016	     -3.94649181	      7.15483728	     24.40371395	     24.40371395	      6.49800513	    -11.24081997	      2.26416557	     -7.91394258	      2.11773037	      5.96248382	     62.31422228	    -16.70887669	     -4.14976142	     70.18392816	     45.04560511	      0.00000000	      0.00000000	    -13.00207499	    -12.07281416	     27.91265651	     29.26154708	     43.32845694	      0.00000000	      0.00000000
     20.71464286	     -6.95035846	     -3.92838060	     10.71783136	      1.02261030	      0.92103817	      0.47946311	      1.86144928	      0.82500638	    -15.84894646	     16.54718503	     16.54718503	     17.36390208	     -1.69683413	     -2.83522455	     26.92673181	     -3.56701040	      7.14644750	     25.32343779	     25.32343779	      8.20213313	    -11.74678544	      5.41400528	     -7.83828356	      2.20508635	      5.83707046	     62.70680075	    -16.41829854	     -3.64195875	     68.59524358	     45.11313566	      0.00000000	      0.00000000	    -12.51158537	    -12.20292949	     28.23693895	     28.88445672	     43.41429393	      0.00000000	      0.00000000
     20.73928571	     -7.01988236	     -3.91772005	     10.11925568	      1.02348214	      0.92109458	      0.47446323	      1.55574628	      0.43512176	    -15.46482276	     16.61274215	     16.61274215	     17.22976976	     -1.37565121	     -2.85644080	     26.70238101	     -3.40813540	      6.80120794	     25.81034001	     25.81034001	      8.67126447	    -12.26694966	      5.28428567	     -7.82213000	      2.33668557	      5.93415129	     62.47231368	    -16.23602418	     -3.57401146	     68.42673962	     45.11641371	      0.00000000	      0.00000000	    -12.01328840	    -12.50537449	     28.16300458	     28.94999252	     43.43602029	      0.00000000	      0.00000000
     20.76392857	     -7.05218475	     -3.93136723	      9.50835016	      1.02418150	      0.92110534	      0.46951828	      1.29307754	      0.04172413	    -15.15734818	     16.78853834	     16.78853834	     17.10618775	     -0.98825371	     -2.94284254	     26.45879222	     -3.27408603	      6.47625484	     26.31855238	     26.31855238	      9.18458912	    -12.79050615	      5.18658396	     -7.83831646	      2.48639176	      6.04075465	     62.19340518	    -16.11547423	     -3.52605231	     68.11080842	     45.12530179	      0.00000000	      0.00000000	    -11.40507430	    -12.74729156	     28.08880251	     29.03695070	     43.46012901	      0.00000000	      0.00000000
